<?xml version="1.0" encoding="UTF-8"?>
<svg id="Livello_2" data-name="Livello 2" xmlns="http://www.w3.org/2000/svg" width="949.48" height="207.33" xmlns:xlink="http://www.w3.org/1999/xlink" viewBox="0 0 949.48 207.33">
  <defs>
    <style>
      .cls-1, .cls-2, .cls-3, .cls-4, .cls-5, .cls-6, .cls-7, .cls-8, .cls-9 {
        stroke-width: 0px;
      }

      .cls-1, .cls-6 {
        fill: #259fd9;
      }

      .cls-2 {
        fill: #f5a630;
      }

      .cls-10 {
        clip-path: url(#clippath-2);
      }

      .cls-3, .cls-11 {
        opacity: .75;
      }

      .cls-3, .cls-6 {
        isolation: isolate;
      }

      .cls-3, .cls-9 {
        fill: #80af6e;
      }

      .cls-4 {
        fill: none;
      }

      .cls-12, .cls-6 {
        opacity: .4;
      }

      .cls-5 {
        fill: #f3992f;
      }

      .cls-13 {
        clip-path: url(#clippath-1);
      }

      .cls-14 {
        clip-path: url(#clippath);
      }

      .cls-7 {
        fill: #ef5f60;
      }

      .cls-15 {
        clip-path: url(#clippath-3);
      }

      .cls-8 {
        fill: #573287;
      }
    </style>
    <clipPath id="clippath">
      <path class="cls-4" d="M847.1,20.05l-83.62,84.35c11.72,11.82,23.44,23.65,35.16,35.47.02.02.02.03.04.05l48.42,48.84,83.63-84.35-83.63-84.35h0Z"/>
    </clipPath>
    <clipPath id="clippath-1">
      <rect class="cls-4" x="43.34" y="44.65" width="118.79" height="118.79" transform="translate(-43.48 103.12) rotate(-45)"/>
    </clipPath>
    <clipPath id="clippath-2">
      <rect class="cls-4" x="415.55" y="44.57" width="118.41" height="118.41" transform="translate(65.67 366.09) rotate(-45)"/>
    </clipPath>
    <clipPath id="clippath-3">
      <polygon class="cls-4" points="289.1 20.72 205.4 104.11 289.1 187.5 372.81 104.11 289.1 20.72"/>
    </clipPath>
  </defs>
  <g id="Livello_1-2" data-name="Livello 1-2">
    <g>
      <g class="cls-11">
        <path class="cls-6" d="M89.88,201.03L5.22,116.37c-6.96-6.96-6.96-18.23,0-25.19L89.88,6.52c6.96-6.96,18.23-6.96,25.19,0l84.66,84.66c6.96,6.96,6.96,18.23,0,25.19l-84.66,84.66c-6.96,6.96-18.23,6.96-25.19,0h0ZM18.74,103.77l83.73,83.73,83.73-83.73L102.47,20.04,18.74,103.77Z"/>
      </g>
      <g class="cls-12">
        <path class="cls-3" d="M276.49,201.03l-84.66-84.66c-6.96-6.96-6.96-18.23,0-25.19L276.49,6.52c6.96-6.96,18.23-6.96,25.19,0l84.66,84.66c6.96,6.96,6.96,18.23,0,25.19l-84.66,84.66c-6.96,6.96-18.23,6.96-25.19,0h0ZM205.35,103.77l83.73,83.73,83.73-83.73-83.73-83.73s-83.73,83.73-83.73,83.73Z"/>
      </g>
      <g class="cls-12">
        <path class="cls-2" d="M648.19,201.03l-84.66-84.66c-6.96-6.96-6.96-18.23,0-25.19L648.19,6.52c6.96-6.96,18.23-6.96,25.19,0l84.66,84.66c6.96,6.96,6.96,18.23,0,25.19l-84.66,84.66c-6.96,6.96-18.23,6.96-25.19,0h0ZM577.06,103.77l83.73,83.73,83.73-83.73-83.73-83.73s-83.73,83.73-83.73,83.73Z"/>
      </g>
      <g>
        <g class="cls-12">
          <path class="cls-8" d="M834.41,200.81l-84.66-84.66c-6.96-6.96-6.96-18.23,0-25.19L834.41,6.3c6.96-6.96,18.23-6.96,25.19,0l84.66,84.66c6.96,6.96,6.96,18.23,0,25.19l-84.66,84.66c-6.96,6.96-18.23,6.96-25.19,0h0ZM763.28,103.55l83.73,83.73,83.73-83.73-83.73-83.73s-83.73,83.73-83.73,83.73Z"/>
        </g>
        <g class="cls-14">
          <path class="cls-8" d="M882.86,65.24c.4-.07.81-.13,1.21-.19.1,0,.2-.03.3-.04.51-.07.13-.02-1.13.14.2-.02.4-.05.61-.07.74-.08,1.49-.13,2.23-.17-1.58.07-2.02.08-1.31.06h.2c.2,0,.41,0,.61,0h1.22s-2.61-.07-1.32-.02c.17,0,.34,0,.51.02.43.02,2.15.15.26,0-1.84-.15-.28-.02.15.03.41.05.81.1,1.21.15-.5-.07-1-.15-1.5-.22.13.02.27.04.4.06.2.03.4.07.61.1l1.11.21c.17.03.34.07.5.11.95.2-1.7-.4-.8-.18.4.1.8.2,1.2.3.77.21,1.54.43,2.3.69-.41-.14-.82-.29-1.23-.43.47.16.91.37,1.34.61-.26-.16-.52-.32-.78-.47.81.49,1.49,1.12,1.95,1.95-.09-.17-.17-.33-.26-.5.8,1.54.66,3.38-.26,4.84.1-.16.21-.31.31-.47-1.05,1.55-2.73,2.38-4.37,3.16.28-.13.55-.26.83-.39-2.54,1.2-5.2,2.05-7.93,2.71.42-.1.85-.2,1.27-.3-2.76.65-5.56,1.12-8.36,1.52-.74.11-1.48.2-2.22.3-.14.02-.28.04-.42.05.4-.05.81-.1,1.21-.15-.14.02-.28.03-.42.05-.42.05-.84.1-1.27.14-1.48.16-2.96.3-4.44.43-1.48.12-2.96.23-4.44.32-.71.04-1.41.08-2.12.12-.35.02-.71.03-1.06.05h-.21c-.71.03-.28.01,1.29-.06-.21,0-.42.02-.64.03-2.97.12-5.93.19-8.9.23-3.39.05-6.78.06-10.17.08-.92,0-1.83.05-2.74.18-.71.06-1.41.19-2.09.4-.28.13-.55.26-.83.39-.35.22-.41.46-.18.71.35.66,1.55.99,2.15,1.15,1.82.5,3.75.77,5.63.82,1.8.05,3.6.14,5.4.28.12,0,.23.02.35.03.77.06.23.02-1.6-.13.23.02.47.04.7.06.47.04.93.09,1.4.14.9.1,1.8.21,2.7.34.61.09.12.01-1.47-.22.12.02.23.04.35.05.23.04.46.07.7.11.46.08.93.16,1.39.24.46.09.92.18,1.38.27.23.05.46.1.69.15.9.2-1.88-.44-.83-.19,1.82.43,3.61.95,5.37,1.56-.41-.14-.82-.29-1.23-.43,3.05,1.07,5.98,2.43,8.75,4.09-.26-.16-.52-.32-.79-.47,5.36,3.25,9.86,7.65,13.92,12.41,3.71,4.35,7.17,8.95,10.3,13.75,1.71,2.62,3.31,5.31,4.77,8.08-.09-.17-.17-.33-.26-.5,2.77,5.26,5.04,10.8,6.6,16.55.82,3.03,1.44,6.11,1.85,9.23.44,3.33.67,6.71.41,10.06-.27,3.39-1.04,6.84-2.93,9.7.1-.16.21-.31.31-.47-.8,1.18-1.79,2.26-3.09,2.88.28-.13.55-.26.83-.39-.16.07-.31.13-.47.19-.47.04-.79.25-.98.62-.25.23-.21.47.11.73.42.33.89.56,1.4.69.72.28,1.46.47,2.22.58,2.02.36,4.1.55,6.16.5,1.59-.04,3.31-.05,4.83-.59,2.11-.75,3.5-2.08,4.71-3.92,1.11-1.69,1.84-3.6,2.3-5.57,1.09-4.67.83-9.58.2-14.29-1.15-8.6-3.94-16.9-7.88-24.6-3.77-7.37-8.44-14.2-13.6-20.63-2.88-3.59-5.94-7.06-9.38-10.12-3.5-3.11-7.46-5.72-11.69-7.72-9.52-4.49-20.26-6.01-30.66-6.56-1.01-.05-2.03-.09-3.05-.12.65,1.22,1.3,2.44,1.95,3.66,14.2-.06,28.44-.22,42.5-2.4,6.5-1.01,13.27-2.39,18.99-5.83,2.02-1.21,3.62-3.47,3.22-5.94-.51-3.12-3.48-4.51-6.15-5.38-5.01-1.64-10.26-2.4-15.49-2.78-6.02-.44-7.46.8-15.62.7-5.32-.07-6.59-.43-7.79-1.05-4.36-2.25-4.29-6.1-8.24-7.09-2.14-.54-5.18-.16-7.03,1.55-1.14,1.05-1.17,2-2.99,3.59-.96.84-1.34.91-3.02,2.06-2.64,1.8-3.96,2.69-3.92,3.16.09,1.17,8.8,1.91,38.49,1.17,0,0,3.36.15,5.69-.24h0Z"/>
        </g>
      </g>
      <g class="cls-12">
        <path class="cls-7" d="M462.15,201.03l-84.66-84.66c-6.96-6.96-6.96-18.23,0-25.19L462.15,6.52c6.96-6.96,18.23-6.96,25.19,0l84.66,84.66c6.96,6.96,6.96,18.23,0,25.19l-84.66,84.66c-6.96,6.96-18.23,6.96-25.19,0h0ZM391.02,103.77l83.73,83.73,83.73-83.73-83.73-83.73-83.73,83.73h0Z"/>
      </g>
      <path class="cls-8" d="M796.89,79.93c-.98.88-1.34,2.69-.72,3.28.17.16.38.19.44.2,2.03.31,15.67-.02,18.3-.03,2.01-.01,4.92.12,10.76.38,1.43.06,2.87-.23,4.3-.14.81.05,1.6.15,1.88-.27.34-.53-.35-1.52-.48-1.71-.63-.91-1.11-.78-2.56-1.88-1.59-1.2-1.45-1.68-2.53-2.08-.34-.13-.8-.25-.92-.61-.13-.39.33-.67.34-1.16.02-1.16-1.26-2.03-1.33-2.08-1.86-1.23-5.11.9-5.46,1.13-.84.54-1.51,1.19-2.83,1.5-.71.17-1.26.16-1.5.16-2.73,0-7.17.67-9.99,1.31-3.19.73-2.98,1.12-5.03,1.32-1.17.11-1.97.06-2.67.69h0Z"/>
      <g class="cls-13">
        <g>
          <g>
            <path class="cls-1" d="M373.38,120.32c-14.18,0-26.65-5.19-33.78-12.99-7.12,7.81-19.6,12.99-33.78,12.99s-26.65-5.19-33.78-12.99c-7.12,7.81-19.6,12.99-33.78,12.99s-26.65-5.19-33.78-12.99c-7.12,7.81-19.6,12.99-33.78,12.99s-26.65-5.19-33.78-12.99c-7.12,7.81-19.6,12.99-33.78,12.99s-26.65-5.19-33.78-12.99c-7.12,7.81-19.6,12.99-33.78,12.99s-26.65-5.19-33.78-12.99c-7.12,7.81-19.6,12.99-33.78,12.99v-9.97c15.16,0,27.5-8.11,27.5-18.09h12.55c0,9.97,12.34,18.09,27.5,18.09s27.5-8.11,27.5-18.09h12.55c0,9.97,12.34,18.09,27.5,18.09s27.5-8.11,27.5-18.09h12.55c0,9.97,12.34,18.09,27.5,18.09s27.5-8.11,27.5-18.09h12.55c0,9.97,12.34,18.09,27.5,18.09s27.5-8.11,27.5-18.09h12.55c0,9.97,12.34,18.09,27.5,18.09s27.5-8.11,27.5-18.09h12.55c0,9.97,12.34,18.09,27.5,18.09v9.97h.06Z"/>
            <ellipse class="cls-1" cx="1.84" cy="92.24" rx="6.27" ry="5.96"/>
            <ellipse class="cls-1" cx="69.38" cy="92.24" rx="6.27" ry="5.96"/>
            <ellipse class="cls-1" cx="136.95" cy="92.24" rx="6.27" ry="5.96"/>
            <ellipse class="cls-1" cx="204.49" cy="92.24" rx="6.27" ry="5.96"/>
          </g>
          <g>
            <path class="cls-1" d="M337.86,160.68c-14.18,0-26.65-5.19-33.78-12.99-7.12,7.81-19.6,12.99-33.78,12.99s-26.65-5.19-33.78-12.99c-7.12,7.81-19.6,12.99-33.78,12.99s-26.65-5.19-33.78-12.99c-7.12,7.81-19.6,12.99-33.78,12.99s-26.65-5.19-33.78-12.99c-7.12,7.81-19.6,12.99-33.78,12.99s-26.65-5.19-33.78-12.99c-7.12,7.81-19.6,12.99-33.78,12.99s-26.65-5.19-33.78-12.99c-7.12,7.81-19.6,12.99-33.78,12.99v-9.97c15.16,0,27.5-8.11,27.5-18.09h12.55c0,9.97,12.34,18.09,27.5,18.09s27.5-8.11,27.5-18.09h12.55c0,9.97,12.34,18.09,27.5,18.09s27.5-8.11,27.5-18.09h12.55c0,9.97,12.34,18.09,27.5,18.09s27.5-8.11,27.5-18.09h12.55c0,9.97,12.34,18.09,27.5,18.09s27.5-8.11,27.5-18.09h12.55c0,9.97,12.34,18.09,27.5,18.09s27.5-8.11,27.5-18.09h12.55c0,9.97,12.34,18.09,27.5,18.09v9.97h.06Z"/>
            <ellipse class="cls-1" cx="33.86" cy="132.6" rx="6.27" ry="5.96"/>
            <ellipse class="cls-1" cx="101.43" cy="132.6" rx="6.27" ry="5.96"/>
            <ellipse class="cls-1" cx="168.97" cy="132.6" rx="6.27" ry="5.96"/>
          </g>
        </g>
      </g>
      <g class="cls-10">
        <g>
          <g>
            <g>
              <path class="cls-7" d="M468.88,79.54l-3.45-8.9h-2.33l-3.45,8.9-6.23-2.42,4.28-11.03c.5-1.28,1.73-2.13,3.11-2.13h6.91c1.38,0,2.62.85,3.11,2.13l4.28,11.03-6.23,2.42h0Z"/>
              <path class="cls-7" d="M455.92,83.22h-6.91c-1.38,0-2.62-.85-3.11-2.13l-4.28-11.03,6.23-2.42,3.45,8.9h2.34l3.45-8.9,6.23,2.42-4.28,11.03c-.5,1.28-1.73,2.13-3.11,2.13h-.01Z"/>
              <path class="cls-7" d="M483.21,79.54l-6.23-2.42,4.28-11.03c.5-1.28,1.73-2.13,3.11-2.13h6.91c1.38,0,2.62.85,3.11,2.13l4.28,11.03-6.23,2.42-3.45-8.9h-2.34l-3.45,8.9h.01Z"/>
              <path class="cls-7" d="M479.49,83.22h-6.91c-1.38,0-2.62-.85-3.11-2.13l-4.28-11.03,6.23-2.42,3.45,8.9h2.34l3.45-8.9,6.23,2.42-4.28,11.03c-.5,1.28-1.73,2.13-3.11,2.13h-.01Z"/>
              <path class="cls-7" d="M503.08,83.22h-6.91c-1.38,0-2.62-.85-3.11-2.13l-4.28-11.03,6.23-2.42,3.45,8.9h2.33l3.45-8.9,6.23,2.42-4.28,11.03c-.5,1.28-1.73,2.13-3.11,2.13h0Z"/>
            </g>
            <path class="cls-7" d="M445.96,171.11h-6.68v-46.98l-4.9-13.2c-.14-.37-.21-.77-.21-1.16v-42.46c0-1.84,1.5-3.34,3.34-3.34h6.62c1.38,0,2.62.85,3.11,2.13l4.28,11.03-6.23,2.42-3.45-8.9h-.99v38.52l4.9,13.2c.14.37.21.77.21,1.16v47.58h0Z"/>
            <path class="cls-7" d="M512.84,171.11h-6.68v-47.58c0-.4.07-.79.21-1.16l4.9-13.2v-38.52h-1.02l-3.45,8.9-6.23-2.42,4.28-11.03c.5-1.28,1.73-2.13,3.11-2.13h6.65c1.84,0,3.34,1.49,3.34,3.34v42.46c0,.4-.07.79-.21,1.16l-4.9,13.2v46.98h0Z"/>
          </g>
          <path class="cls-7" d="M463.3,181.48l-6.68-.06.27-30.44c0-3.92.74-7.54,2.2-10.73,3.29-7.19,9.38-11.16,17.16-11.16,8.36,0,14.57,4.53,17.49,12.75.95,2.69,1.44,5.71,1.44,8.97v30.28h-6.68v-30.28c0-2.5-.35-4.77-1.05-6.74-1.96-5.51-5.72-8.31-11.19-8.31s-8.86,2.37-11.09,7.25c-1.06,2.31-1.59,4.99-1.59,7.98l-.27,30.47v.02Z"/>
        </g>
      </g>
      <g class="cls-15">
        <g>
          <path class="cls-9" d="M350.81,141.06l-42.06-64.65h-2.55c-2.67,0-5.13-1.3-6.62-3.49l-10.57-13.91-23.8,36.35-7.45-4.88,26.22-40.05c1.02-1.61,2.83-2.62,4.81-2.63h.03c1.89,0,3.64.91,4.72,2.45l13.11,17.25h2.1c3.02,0,5.81,1.51,7.46,4.04l42.07,64.65-7.47,4.86h0ZM291.45,55.26l-.05.08.05-.08Z"/>
          <path class="cls-9" d="M303.99,191.01l-5.76-6.79,52.02-44.1-47.17-35.03c-.8-.6-1.87-.61-2.64-.03l-7.45,5.57c-3.09,2.31-7.2,2.5-10.5.47l-26.43-16.3-32.4,47.61-7.36-5.01,33.02-48.51c2.29-3.44,6.89-4.45,10.47-2.25l27.39,16.89c.15.09.35.08.49-.02l7.45-5.57c3.93-2.94,9.41-2.92,13.31.05l56.14,41.69-60.57,51.35v-.02ZM256.69,93.85l-.02.02s.01-.01.02-.02Z"/>
        </g>
      </g>
      <g>
        <path class="cls-5" d="M632.71,110.68l-9.21-9.35c-3.28-3.33-3.32-8.57-.08-11.95l1.42-1.48c1.59-1.66,3.74-2.6,6.04-2.64,2.33-.05,4.48.82,6.13,2.42l2.7,2.62-4.65,4.79-2.7-2.62c-.37-.35-.87-.54-1.35-.54-.51,0-.98.22-1.33.58l-1.42,1.48c-.72.75-.71,1.91.02,2.64l9.21,9.35-4.76,4.69h-.02Z"/>
        <path class="cls-5" d="M689.36,110.68l-4.76-4.69,9.21-9.35c.72-.73.73-1.9.02-2.64l-1.42-1.48c-.35-.37-.82-.57-1.33-.58-.53-.01-.99.18-1.35.54l-2.7,2.62-4.65-4.79,2.7-2.62c1.65-1.6,3.86-2.48,6.13-2.42,2.3.04,4.44.98,6.03,2.64l1.42,1.48c3.23,3.37,3.19,8.62-.09,11.95l-9.21,9.35h0Z"/>
        <path class="cls-5" d="M687.36,158.39h-51.71v-5.46c0-3.95,2.68-7.38,6.52-8.33l6.94-1.71v-1.1h-2.4l-1-1.17c-3.1-3.64-5.76-7.63-7.89-11.86-2.29-4.55-7.06-14.03-6-26.31.27-3.1.72-8.29,3.84-14.12,4.1-7.67,10.25-11.94,14.52-14.14-.06-3.36-.39-6.73-1-10.03h-3.79c-4.73,0-8.57-3.85-8.57-8.57v-1.32c0-4.73,3.85-8.57,8.57-8.57h31.22c4.73,0,8.57,3.85,8.57,8.57v1.32c0,4.73-3.85,8.57-8.57,8.57h-3.9c-.61,3.31-.95,6.67-1,10.03,4.38,2.23,10.68,6.55,14.75,14.15,3.13,5.85,3.58,11.03,3.84,14.13,1.06,12.28-3.71,21.76-6,26.31-2.13,4.23-4.78,8.22-7.89,11.86l-1,1.17h-2.4v1.06l7.7,1.78c3.91.9,6.64,4.34,6.64,8.35v5.4h.01ZM642.77,151.71h37.41c-.25-.27-.58-.47-.97-.56l-12.88-2.98v-13.05h5.97c2.34-2.91,4.37-6.06,6.03-9.36,2.17-4.31,6.21-12.34,5.32-22.73-.24-2.75-.6-6.91-3.08-11.55-3.79-7.09-10.11-10.64-13.54-12.12l-2.01-.87v-3.28c0-5.09.58-10.18,1.72-15.14l.6-2.59h9.28c1.04,0,1.89-.85,1.89-1.9v-1.32c0-1.04-.85-1.89-1.89-1.89h-31.22c-1.04,0-1.89.85-1.89,1.89v1.32c0,1.05.85,1.9,1.89,1.9h9.16l.6,2.59c1.14,4.96,1.72,10.05,1.72,15.14v3.28l-2.01.87c-3.32,1.44-9.45,4.92-13.31,12.12-2.48,4.63-2.84,8.79-3.08,11.55-.9,10.39,3.15,18.42,5.32,22.73,1.66,3.3,3.69,6.45,6.03,9.36h5.97v13.01l-12.01,2.96c-.4.1-.75.32-1,.62h-.02Z"/>
      </g>
    </g>
  </g>
</svg>