<?xml version="1.0" encoding="UTF-8"?>
<svg id="Livello_2" data-name="Livello 2" xmlns="http://www.w3.org/2000/svg" xmlns:xlink="http://www.w3.org/1999/xlink" viewBox="0 0 949.48 381.33">
  <defs>
    <style>
      .cls-1, .cls-2, .cls-3, .cls-4, .cls-5, .cls-6, .cls-7, .cls-8, .cls-9, .cls-10 {
        stroke-width: 0px;
      }

      .cls-1, .cls-11 {
        opacity: .75;
      }

      .cls-1, .cls-7 {
        fill: #80af6e;
      }

      .cls-12 {
        clip-path: url(#clippath);
      }

      .cls-2 {
        fill: none;
      }

      .cls-13 {
        clip-path: url(#clippath-1);
      }

      .cls-14 {
        clip-path: url(#clippath-3);
      }

      .cls-15 {
        clip-path: url(#clippath-2);
      }

      .cls-3, .cls-16 {
        opacity: .4;
      }

      .cls-3, .cls-4 {
        fill: #259fd9;
      }

      .cls-17 {
        opacity: .54;
      }

      .cls-5 {
        fill: #573287;
      }

      .cls-6 {
        fill: #0c4f6c;
      }

      .cls-8 {
        fill: #f3992f;
      }

      .cls-9 {
        fill: #ef5f60;
      }

      .cls-10 {
        fill: #f5a630;
      }
    </style>
    <clipPath id="clippath">
      <path class="cls-2" d="M847.1,18.97l-83.62,84.35c11.72,11.82,23.44,23.65,35.16,35.47.02.02.02.03.04.05l48.42,48.84,83.63-84.35-83.63-84.35Z"/>
    </clipPath>
    <clipPath id="clippath-1">
      <rect class="cls-2" x="43.35" y="43.57" width="118.79" height="118.79" transform="translate(102.89 -42.49) rotate(45)"/>
    </clipPath>
    <clipPath id="clippath-2">
      <rect class="cls-2" x="415.54" y="43.49" width="118.41" height="118.41" transform="translate(66.44 365.77) rotate(-45)"/>
    </clipPath>
    <clipPath id="clippath-3">
      <polygon class="cls-2" points="289.1 19.64 205.4 103.03 289.1 186.42 372.81 103.03 289.1 19.64"/>
    </clipPath>
  </defs>
  <g id="Livello_1-2" data-name="Livello 1">
    <g>
      <g class="cls-11">
        <path class="cls-3" d="M89.88,199.95L5.22,115.29c-6.96-6.96-6.96-18.23,0-25.19L89.88,5.44c6.96-6.96,18.23-6.96,25.19,0l84.66,84.66c6.96,6.96,6.96,18.23,0,25.19l-84.66,84.66c-6.96,6.96-18.23,6.96-25.19,0ZM18.74,102.69l83.73,83.73,83.73-83.73L102.47,18.96,18.74,102.69Z"/>
      </g>
      <g class="cls-16">
        <path class="cls-1" d="M276.49,199.95l-84.66-84.66c-6.96-6.96-6.96-18.23,0-25.19L276.49,5.44c6.96-6.96,18.23-6.96,25.19,0l84.66,84.66c6.96,6.96,6.96,18.23,0,25.19l-84.66,84.66c-6.96,6.96-18.23,6.96-25.19,0ZM205.35,102.69l83.73,83.73,83.73-83.73-83.73-83.73-83.73,83.73Z"/>
      </g>
      <g class="cls-16">
        <path class="cls-10" d="M648.19,199.95l-84.66-84.66c-6.96-6.96-6.96-18.23,0-25.19L648.19,5.44c6.96-6.96,18.23-6.96,25.19,0l84.66,84.66c6.96,6.96,6.96,18.23,0,25.19l-84.66,84.66c-6.96,6.96-18.23,6.96-25.19,0ZM577.06,102.69l83.73,83.73,83.73-83.73-83.73-83.73-83.73,83.73Z"/>
      </g>
      <g>
        <g class="cls-16">
          <path class="cls-5" d="M834.41,199.73l-84.66-84.66c-6.96-6.96-6.96-18.23,0-25.19L834.41,5.22c6.96-6.96,18.23-6.96,25.19,0l84.66,84.66c6.96,6.96,6.96,18.23,0,25.19l-84.66,84.66c-6.96,6.96-18.23,6.96-25.19,0ZM763.28,102.47l83.73,83.73,83.73-83.73-83.73-83.73-83.73,83.73Z"/>
        </g>
        <g class="cls-12">
          <path class="cls-5" d="M882.86,64.16c.4-.07.81-.13,1.21-.19.1-.01.2-.03.3-.04.51-.07.13-.02-1.13.14.2-.02.4-.05.61-.07.74-.08,1.49-.13,2.23-.17-1.58.07-2.02.08-1.31.06.07,0,.13,0,.2,0,.2,0,.41-.01.61-.01.41,0,.81,0,1.22,0-.04,0-2.61-.07-1.32-.02.17,0,.34.01.51.02.43.02,2.15.15.26,0-1.84-.15-.28-.02.15.03.41.05.81.1,1.21.15-.5-.07-1-.15-1.5-.22.13.02.27.04.4.06.2.03.4.07.61.1.37.07.74.14,1.11.21.17.03.34.07.5.11.95.2-1.7-.4-.8-.18.4.1.8.2,1.2.3.77.21,1.54.43,2.3.69-.41-.14-.82-.29-1.23-.43.47.16.91.37,1.34.61-.26-.16-.52-.32-.78-.47.81.49,1.49,1.12,1.95,1.95-.09-.17-.17-.33-.26-.5.8,1.54.66,3.38-.26,4.84.1-.16.21-.31.31-.47-1.05,1.55-2.73,2.38-4.37,3.16.28-.13.55-.26.83-.39-2.54,1.2-5.2,2.05-7.93,2.71.42-.1.85-.2,1.27-.3-2.76.65-5.56,1.12-8.36,1.52-.74.11-1.48.2-2.22.3-.14.02-.28.04-.42.05.4-.05.81-.1,1.21-.15-.14.02-.28.03-.42.05-.42.05-.84.1-1.27.14-1.48.16-2.96.3-4.44.43-1.48.12-2.96.23-4.44.32-.71.04-1.41.08-2.12.12-.35.02-.71.03-1.06.05-.07,0-.14,0-.21,0-.71.03-.28.01,1.29-.06-.21,0-.42.02-.64.03-2.97.12-5.93.19-8.9.23-3.39.05-6.78.06-10.17.08-.92,0-1.83.05-2.74.18-.71.06-1.41.19-2.09.4-.28.13-.55.26-.83.39-.35.22-.41.46-.18.71.35.66,1.55.99,2.15,1.15,1.82.5,3.75.77,5.63.82,1.8.05,3.6.14,5.4.28.12,0,.23.02.35.03.77.06.23.02-1.6-.13.23.02.47.04.7.06.47.04.93.09,1.4.14.9.1,1.8.21,2.7.34.61.09.12.01-1.47-.22.12.02.23.04.35.05.23.04.46.07.7.11.46.08.93.16,1.39.24.46.09.92.18,1.38.27.23.05.46.1.69.15.9.2-1.88-.44-.83-.19,1.82.43,3.61.95,5.37,1.56-.41-.14-.82-.29-1.23-.43,3.05,1.07,5.98,2.43,8.75,4.09-.26-.16-.52-.32-.79-.47,5.36,3.25,9.86,7.65,13.92,12.41,3.71,4.35,7.17,8.95,10.3,13.75,1.71,2.62,3.31,5.31,4.77,8.08-.09-.17-.17-.33-.26-.5,2.77,5.26,5.04,10.8,6.6,16.55.82,3.03,1.44,6.11,1.85,9.23.44,3.33.67,6.71.41,10.06-.27,3.39-1.04,6.84-2.93,9.7.1-.16.21-.31.31-.47-.8,1.18-1.79,2.26-3.09,2.88.28-.13.55-.26.83-.39-.16.07-.31.13-.47.19-.47.04-.79.25-.98.62-.25.23-.21.47.11.73.42.33.89.56,1.4.69.72.28,1.46.47,2.22.58,2.02.36,4.1.55,6.16.5,1.59-.04,3.31-.05,4.83-.59,2.11-.75,3.5-2.08,4.71-3.92,1.11-1.69,1.84-3.6,2.3-5.57,1.09-4.67.83-9.58.2-14.29-1.15-8.6-3.94-16.9-7.88-24.6-3.77-7.37-8.44-14.2-13.6-20.63-2.88-3.59-5.94-7.06-9.38-10.12-3.5-3.11-7.46-5.72-11.69-7.72-9.52-4.49-20.26-6.01-30.66-6.56-1.01-.05-2.03-.09-3.05-.12.65,1.22,1.3,2.44,1.95,3.66,14.2-.06,28.44-.22,42.5-2.4,6.5-1.01,13.27-2.39,18.99-5.83,2.02-1.21,3.62-3.47,3.22-5.94-.51-3.12-3.48-4.51-6.15-5.38-5.01-1.64-10.26-2.4-15.49-2.78-6.02-.44-7.46.8-15.62.7-5.32-.07-6.59-.43-7.79-1.05-4.36-2.25-4.29-6.1-8.24-7.09-2.14-.54-5.18-.16-7.03,1.55-1.14,1.05-1.17,2-2.99,3.59-.96.84-1.34.91-3.02,2.06-2.64,1.8-3.96,2.69-3.92,3.16.09,1.17,8.8,1.91,38.49,1.17,0,0,3.36.15,5.69-.24Z"/>
        </g>
      </g>
      <g class="cls-16">
        <path class="cls-9" d="M462.15,199.95l-84.66-84.66c-6.96-6.96-6.96-18.23,0-25.19L462.15,5.44c6.96-6.96,18.23-6.96,25.19,0l84.66,84.66c6.96,6.96,6.96,18.23,0,25.19l-84.66,84.66c-6.96,6.96-18.23,6.96-25.19,0ZM391.02,102.69l83.73,83.73,83.73-83.73-83.73-83.73-83.73,83.73Z"/>
      </g>
      <path class="cls-5" d="M796.89,78.85c-.98.88-1.34,2.69-.72,3.28.17.16.38.19.44.2,2.03.31,15.67-.02,18.3-.03,2.01-.01,4.92.12,10.76.38,1.43.06,2.87-.23,4.3-.14.81.05,1.6.15,1.88-.27.34-.53-.35-1.52-.48-1.71-.63-.91-1.11-.78-2.56-1.88-1.59-1.2-1.45-1.68-2.53-2.08-.34-.13-.8-.25-.92-.61-.13-.39.33-.67.34-1.16.02-1.16-1.26-2.03-1.33-2.08-1.86-1.23-5.11.9-5.46,1.13-.84.54-1.51,1.19-2.83,1.5-.71.17-1.26.16-1.5.16-2.73,0-7.17.67-9.99,1.31-3.19.73-2.98,1.12-5.03,1.32-1.17.11-1.97.06-2.67.69Z"/>
      <g class="cls-13">
        <g>
          <path class="cls-4" d="M373.38,119.24c-14.18,0-26.65-5.19-33.78-12.99-7.12,7.81-19.6,12.99-33.78,12.99s-26.65-5.19-33.78-12.99c-7.12,7.81-19.6,12.99-33.78,12.99s-26.65-5.19-33.78-12.99c-7.12,7.81-19.6,12.99-33.78,12.99s-26.65-5.19-33.78-12.99c-7.12,7.81-19.6,12.99-33.78,12.99s-26.65-5.19-33.78-12.99c-7.12,7.81-19.6,12.99-33.78,12.99s-26.65-5.19-33.78-12.99c-7.12,7.81-19.6,12.99-33.78,12.99v-9.97c15.16,0,27.5-8.11,27.5-18.09h12.55c0,9.97,12.34,18.09,27.5,18.09s27.5-8.11,27.5-18.09h12.55c0,9.97,12.34,18.09,27.5,18.09s27.5-8.11,27.5-18.09h12.55c0,9.97,12.34,18.09,27.5,18.09s27.5-8.11,27.5-18.09c0,0,0,0,0,0h12.55c0,9.97,12.34,18.09,27.5,18.09s27.5-8.11,27.5-18.09h12.55c0,9.97,12.34,18.09,27.5,18.09s27.5-8.11,27.5-18.09h12.55c0,9.97,12.34,18.09,27.5,18.09v9.97Z"/>
          <ellipse class="cls-4" cx="1.84" cy="91.16" rx="6.27" ry="5.96"/>
          <ellipse class="cls-4" cx="69.38" cy="91.16" rx="6.27" ry="5.96"/>
          <ellipse class="cls-4" cx="136.95" cy="91.16" rx="6.27" ry="5.96"/>
          <ellipse class="cls-4" cx="204.49" cy="91.16" rx="6.27" ry="5.96"/>
        </g>
        <g>
          <path class="cls-4" d="M337.86,159.6c-14.18,0-26.65-5.19-33.78-12.99-7.12,7.81-19.6,12.99-33.78,12.99s-26.65-5.19-33.78-12.99c-7.12,7.81-19.6,12.99-33.78,12.99s-26.65-5.19-33.78-12.99c-7.12,7.81-19.6,12.99-33.78,12.99s-26.65-5.19-33.78-12.99c-7.12,7.81-19.6,12.99-33.78,12.99s-26.65-5.19-33.78-12.99c-7.12,7.81-19.6,12.99-33.78,12.99s-26.65-5.19-33.78-12.99c-7.12,7.81-19.6,12.99-33.78,12.99v-9.97c15.16,0,27.5-8.11,27.5-18.09h12.55c0,9.97,12.34,18.09,27.5,18.09s27.5-8.11,27.5-18.09h12.55c0,9.97,12.34,18.09,27.5,18.09s27.5-8.11,27.5-18.09h12.55c0,9.97,12.34,18.09,27.5,18.09s27.5-8.11,27.5-18.09c0,0,0,0,0,0h12.55c0,9.97,12.34,18.09,27.5,18.09s27.5-8.11,27.5-18.09h12.55c0,9.97,12.34,18.09,27.5,18.09s27.5-8.11,27.5-18.09h12.55c0,9.97,12.34,18.09,27.5,18.09v9.97Z"/>
          <ellipse class="cls-4" cx="33.86" cy="131.52" rx="6.27" ry="5.96"/>
          <ellipse class="cls-4" cx="101.43" cy="131.52" rx="6.27" ry="5.96"/>
          <ellipse class="cls-4" cx="168.97" cy="131.52" rx="6.27" ry="5.96"/>
        </g>
      </g>
      <g class="cls-15">
        <g>
          <g>
            <path class="cls-9" d="M468.88,78.46l-3.45-8.9h-2.33l-3.45,8.9-6.23-2.42,4.28-11.03c.5-1.28,1.73-2.13,3.11-2.13h6.91c1.38,0,2.62.85,3.11,2.13l4.28,11.03-6.23,2.42Z"/>
            <path class="cls-9" d="M455.92,82.14h-6.91c-1.38,0-2.62-.85-3.11-2.13l-4.28-11.03,6.23-2.42,3.45,8.9h2.34l3.45-8.9,6.23,2.42-4.28,11.03c-.5,1.28-1.73,2.13-3.11,2.13Z"/>
            <path class="cls-9" d="M483.21,78.46l-6.23-2.42,4.28-11.03c.5-1.28,1.73-2.13,3.11-2.13h6.91c1.38,0,2.62.85,3.11,2.13l4.28,11.03-6.23,2.42-3.45-8.9h-2.34l-3.45,8.9Z"/>
            <path class="cls-9" d="M479.49,82.14h-6.91c-1.38,0-2.62-.85-3.11-2.13l-4.28-11.03,6.23-2.42,3.45,8.9h2.34l3.45-8.9,6.23,2.42-4.28,11.03c-.5,1.28-1.73,2.13-3.11,2.13Z"/>
            <path class="cls-9" d="M503.08,82.14h-6.91c-1.38,0-2.62-.85-3.11-2.13l-4.28-11.03,6.23-2.42,3.45,8.9h2.33l3.45-8.9,6.23,2.42-4.28,11.03c-.5,1.28-1.73,2.13-3.11,2.13Z"/>
          </g>
          <path class="cls-9" d="M445.96,170.03h-6.68v-46.98l-4.9-13.2c-.14-.37-.21-.77-.21-1.16v-42.46c0-1.84,1.5-3.34,3.34-3.34h6.62c1.38,0,2.62.85,3.11,2.13l4.28,11.03-6.23,2.42-3.45-8.9h-.99v38.52l4.9,13.2c.14.37.21.77.21,1.16v47.58Z"/>
          <path class="cls-9" d="M512.84,170.03h-6.68v-47.58c0-.4.07-.79.21-1.16l4.9-13.2v-38.52h-1.02l-3.45,8.9-6.23-2.42,4.28-11.03c.5-1.28,1.73-2.13,3.11-2.13h6.65c1.84,0,3.34,1.49,3.34,3.34v42.46c0,.4-.07.79-.21,1.16l-4.9,13.2v46.98Z"/>
        </g>
        <path class="cls-9" d="M463.3,180.4l-6.68-.06.27-30.44c0-3.92.74-7.54,2.2-10.73,3.29-7.19,9.38-11.16,17.16-11.16,8.36,0,14.57,4.53,17.49,12.75.95,2.69,1.44,5.71,1.44,8.97v30.28h-6.68v-30.28c0-2.5-.35-4.77-1.05-6.74-1.96-5.51-5.72-8.31-11.19-8.31s-8.86,2.37-11.09,7.25c-1.06,2.31-1.59,4.99-1.59,7.98l-.27,30.47Z"/>
      </g>
      <g class="cls-14">
        <path class="cls-7" d="M350.81,139.98l-42.06-64.65h-2.55c-2.67,0-5.13-1.3-6.62-3.49l-10.57-13.91-23.8,36.35-7.45-4.88,26.22-40.05c1.02-1.61,2.83-2.62,4.81-2.63h.03c1.89,0,3.64.91,4.72,2.45l13.11,17.25h2.1c3.02,0,5.81,1.51,7.46,4.04l42.07,64.65-7.47,4.86ZM291.45,54.18l-.05.08.05-.08Z"/>
        <path class="cls-7" d="M303.99,189.93l-5.76-6.79,52.02-44.1-47.17-35.03c-.8-.6-1.87-.61-2.64-.03l-7.45,5.57c-3.09,2.31-7.2,2.5-10.5.47l-26.43-16.3-32.4,47.61-7.36-5.01,33.02-48.51c2.29-3.44,6.89-4.45,10.47-2.25l27.39,16.89c.15.09.35.08.49-.02l7.45-5.57c3.93-2.94,9.41-2.92,13.31.05l56.14,41.69-60.57,51.35ZM256.69,92.77l-.02.02s.01-.01.02-.02Z"/>
      </g>
      <g>
        <path class="cls-8" d="M632.71,109.6l-9.21-9.35c-3.28-3.33-3.32-8.57-.08-11.95l1.42-1.48c1.59-1.66,3.74-2.6,6.04-2.64,2.33-.05,4.48.82,6.13,2.42l2.7,2.62-4.65,4.79-2.7-2.62c-.37-.35-.87-.54-1.35-.54-.51,0-.98.22-1.33.58l-1.42,1.48c-.72.75-.71,1.91.02,2.64l9.21,9.35-4.76,4.69Z"/>
        <path class="cls-8" d="M689.36,109.6l-4.76-4.69,9.21-9.35c.72-.73.73-1.9.02-2.64l-1.42-1.48c-.35-.37-.82-.57-1.33-.58-.53-.01-.99.18-1.35.54l-2.7,2.62-4.65-4.79,2.7-2.62c1.65-1.6,3.86-2.48,6.13-2.42,2.3.04,4.44.98,6.03,2.64l1.42,1.48c3.23,3.37,3.19,8.62-.09,11.95l-9.21,9.35Z"/>
        <path class="cls-8" d="M687.36,157.31h-51.71v-5.46c0-3.95,2.68-7.38,6.52-8.33l6.94-1.71v-1.1h-2.4l-1-1.17c-3.1-3.64-5.76-7.63-7.89-11.86-2.29-4.55-7.06-14.03-6-26.31.27-3.1.72-8.29,3.84-14.12,4.1-7.67,10.25-11.94,14.52-14.14-.06-3.36-.39-6.73-1-10.03h-3.79c-4.73,0-8.57-3.85-8.57-8.57v-1.32c0-4.73,3.85-8.57,8.57-8.57h31.22c4.73,0,8.57,3.85,8.57,8.57v1.32c0,4.73-3.85,8.57-8.57,8.57h-3.9c-.61,3.31-.95,6.67-1,10.03,4.38,2.23,10.68,6.55,14.75,14.15,3.13,5.85,3.58,11.03,3.84,14.13,1.06,12.28-3.71,21.76-6,26.31-2.13,4.23-4.78,8.22-7.89,11.86l-1,1.17h-2.4v1.06l7.7,1.78c3.91.9,6.64,4.34,6.64,8.35v5.4ZM642.77,150.63h37.41c-.25-.27-.58-.47-.97-.56l-12.88-2.98v-13.05h5.97c2.34-2.91,4.37-6.06,6.03-9.36,2.17-4.31,6.21-12.34,5.32-22.73-.24-2.75-.6-6.91-3.08-11.55-3.79-7.09-10.11-10.64-13.54-12.12l-2.01-.87v-3.28c0-5.09.58-10.18,1.72-15.14l.6-2.59h9.28c1.04,0,1.89-.85,1.89-1.9v-1.32c0-1.04-.85-1.89-1.89-1.89h-31.22c-1.04,0-1.89.85-1.89,1.89v1.32c0,1.05.85,1.9,1.89,1.9h9.16l.6,2.59c1.14,4.96,1.72,10.05,1.72,15.14v3.28l-2.01.87c-3.32,1.44-9.45,4.92-13.31,12.12-2.48,4.63-2.84,8.79-3.08,11.55-.9,10.39,3.15,18.42,5.32,22.73,1.66,3.3,3.69,6.45,6.03,9.36h5.97v13.01l-12.01,2.96c-.4.1-.75.32-1,.62Z"/>
      </g>
    </g>
    <g>
      <g>
        <path class="cls-6" d="M522.57,282.26c0-.89,3.21-1.34,9.63-1.34s9.63.48,9.63,1.45v21.6c3.19-.59,5.45-.89,6.79-.89,15.58,0,23.38,8.94,23.38,26.83,0,9.95-2.39,17.61-7.18,22.99-4.79,5.38-11.57,8.07-20.37,8.07s-16.08-1.97-21.87-5.9v-72.8ZM545.5,320.44c-1.26,0-2.49.41-3.67,1.22v21.26c1.04.44,2.13.67,3.28.67s2.32-.45,3.51-1.34c2.08-1.48,3.12-4.93,3.12-10.35,0-7.64-2.08-11.47-6.24-11.47Z"/>
        <path class="cls-6" d="M584.74,353.27c-4.64-5.12-6.96-12.21-6.96-21.26s2.32-16.14,6.96-21.26c4.64-5.12,10.89-7.68,18.76-7.68s14.1,2.56,18.7,7.68c4.6,5.12,6.9,12.21,6.9,21.26s-2.3,16.14-6.9,21.26c-4.6,5.12-10.84,7.68-18.7,7.68s-14.12-2.56-18.76-7.68ZM603.55,321.66c-4.19,0-6.29,3.42-6.29,10.24s2.1,10.24,6.29,10.24,6.29-3.41,6.29-10.24-2.1-10.24-6.29-10.24Z"/>
        <path class="cls-6" d="M661.38,359.73c0,.52-3.38.78-10.13.78-6.75-.15-10.13-.45-10.13-.89v-36.96h-3c-1.19,0-2.13-.72-2.84-2.17-.7-1.45-1.06-3.25-1.06-5.4,0-8.02,2.37-12.02,7.12-12.02,3.34,0,6.12,1.02,8.35,3.06,2.23,2.04,3.34,4.36,3.34,6.96,1.56-3.04,3.65-5.47,6.29-7.29,2.63-1.82,5.32-2.73,8.07-2.73,4.3,0,6.9,1.11,7.79,3.34.22.6.33,1.47.33,2.62s-.35,3.21-1.06,6.18c-.71,2.97-1.43,5.12-2.17,6.45-.74,1.34-1.19,2-1.33,2s-.83-.28-2.06-.83c-1.22-.56-2.32-.83-3.29-.83-2.82,0-4.23,2.23-4.23,6.68v31.06Z"/>
        <path class="cls-6" d="M701.56,359.84c-7.2,0-12.76-2.32-16.7-6.96-3.94-4.64-5.9-11.5-5.9-20.59s2.58-16.21,7.74-21.37c5.16-5.16,12.02-7.74,20.59-7.74s15.64,1.89,21.2,5.68v55.44c0,5.49-2.23,9.7-6.68,12.63-4.45,2.93-10.17,4.4-17.14,4.4s-13.21-.89-18.7-2.67c-.74-1.78-1.11-3.38-1.11-4.79,0-4.75.78-8.24,2.34-10.46,4.97,2.15,10.28,3.23,15.92,3.23,4.08,0,6.12-1.45,6.12-4.34v-3.34c-3.19.6-5.75.89-7.68.89ZM706.68,321.33c-4.97,0-7.46,3.75-7.46,11.24,0,4.67.96,7.72,2.89,9.13,1.26.97,2.52,1.45,3.79,1.45s2.37-.11,3.34-.33v-21.15c-.89-.22-1.75-.33-2.56-.33Z"/>
        <path class="cls-6" d="M757.11,359.06c0,.67-3.1,1-9.29,1s-9.29-.52-9.29-1.56v-76.25c0-.52,1.15-.89,3.45-1.11,2.3-.22,4.23-.33,5.79-.33,6.23,0,9.35.67,9.35,2v22.26c4.16-1.26,7.31-1.89,9.46-1.89,5.64,0,10.09,1.5,13.36,4.51,3.27,3,4.9,8.59,4.9,16.75v34.51c0,.67-2.89,1-8.68,1-6.53-.22-9.8-.59-9.8-1.11v-32.73c0-3.64-1.19-5.45-3.56-5.45-1.63,0-3.53.78-5.68,2.34v36.07Z"/>
        <path class="cls-6" d="M814.66,297.95c0,.52-3.4.78-10.19.78s-10.19-.22-10.19-.67v-16.03c0-.74,3.4-1.11,10.19-1.11s10.19.22,10.19.67v16.36ZM814.66,359.17c0,.59-3.4.89-10.19.89s-10.19-.26-10.19-.78v-54.65c0-.52,3.4-.78,10.19-.78s10.19.22,10.19.67v54.65Z"/>
      </g>
      <g class="cls-17">
        <path class="cls-10" d="M405.51,281.83c0-1.1,2.88-1.64,8.65-1.64,1.97,0,4.25.13,6.85.38,2.59.26,3.89.6,3.89,1.04v57.72h3.83c1.82,0,3.03,1.64,3.62,4.93.15.95.22,2.25.22,3.89s-.51,3.63-1.53,5.97c-1.46,3.21-3.8,4.82-7.01,4.82-2.41,0-4.54-.48-6.41-1.42-1.86-.95-3.12-1.93-3.78-2.96l-.99-1.42c-4.02,3.87-9.06,5.8-15.12,5.8-6.06,0-11.24-2.52-15.55-7.56-4.31-5.04-6.46-12.07-6.46-21.08,0-9.02,2.26-15.99,6.79-20.92,4.53-4.93,10.19-7.39,16.98-7.39,1.97,0,3.98.22,6.02.66v-20.81ZM401.9,319.51c-4.09,0-6.13,3.69-6.13,11.06,0,3.72.58,6.41,1.75,8.05,1.17,1.64,2.46,2.46,3.89,2.46,1.42,0,2.79-.62,4.11-1.86v-18.62c-1.24-.73-2.45-1.1-3.62-1.1Z"/>
        <path class="cls-10" d="M478.47,354.84c-4.6,2.7-10.52,4.05-17.75,4.05-7.23,0-13.33-2.46-18.29-7.39-4.97-4.93-7.45-11.76-7.45-20.48,0-8.72,2.39-15.75,7.18-21.08,4.78-5.33,10.82-8,18.13-8,7.3,0,12.94,1.86,16.92,5.59,3.98,3.72,5.97,8.25,5.97,13.58,0,11.83-6.79,17.74-20.37,17.74h-7.56c0,2.19.6,3.71,1.81,4.54,1.2.84,2.97,1.26,5.31,1.26,5.11,0,9.97-1.17,14.57-3.51.07-.07.4.44.99,1.53,1.75,3.14,2.63,5.79,2.63,7.94s-.69,3.56-2.08,4.22ZM464.78,323.19c0-3.07-1.5-4.6-4.49-4.6-1.39,0-2.57.42-3.56,1.26-.98.84-1.48,2.06-1.48,3.67v3.4s5.92,0,5.92,0c2.41,0,3.62-1.24,3.62-3.72Z"/>
        <path class="cls-10" d="M510.45,297.22c0,.51-3.34.77-10.02.77-6.68,0-10.02-.22-10.02-.66v-15.77c0-.73,3.34-1.1,10.02-1.1,6.68,0,10.02.22,10.02.66v16.1ZM510.45,357.46c0,.59-3.34.88-10.02.88-6.68,0-10.02-.26-10.02-.77v-53.78c0-.51,3.34-.77,10.02-.77,6.68,0,10.02.22,10.02.66v53.78Z"/>
      </g>
      <g>
        <path class="cls-6" d="M153.33,378.96c0,.51-3.14.77-9.41.77s-9.4-.26-9.4-.77v-56.65h-3.74c-1.76,0-2.97-1.61-3.63-4.84-.22-1.03-.33-2.35-.33-3.96s.51-3.52,1.54-5.72c1.47-3.23,3.81-4.84,7.04-4.84,2.13,0,4.09.5,5.89,1.49,1.8.99,3.04,1.91,3.74,2.75.7.84,1.04,1.34,1.04,1.49,4.91-3.81,10.23-5.72,15.95-5.72s10.63,2.22,14.74,6.66c4.11,4.44,6.16,11.29,6.16,20.57s-2.05,16.46-6.16,21.56c-4.11,5.1-9.31,7.65-15.62,7.65-2.86,0-5.46-.15-7.81-.44v20.02ZM157.84,322.2c-1.25,0-2.46.4-3.63,1.21v19.47c1.25.15,2.25.22,3.02.22h1.81c3.01-.29,4.51-4.14,4.51-11.55,0-6.23-1.91-9.35-5.72-9.35Z"/>
        <path class="cls-6" d="M214.82,358.83c0,.51-3.34.77-10.01.77-6.67-.15-10.01-.44-10.01-.88v-36.52h-2.97c-1.17,0-2.11-.71-2.8-2.14-.7-1.43-1.04-3.21-1.04-5.33,0-7.92,2.35-11.88,7.04-11.88,3.3,0,6.05,1.01,8.25,3.02,2.2,2.02,3.3,4.31,3.3,6.88,1.54-3.01,3.61-5.41,6.21-7.21,2.6-1.8,5.26-2.69,7.98-2.69,4.25,0,6.82,1.1,7.7,3.3.22.59.33,1.45.33,2.58s-.35,3.17-1.04,6.1c-.7,2.93-1.41,5.06-2.15,6.38-.73,1.32-1.17,1.98-1.32,1.98s-.83-.28-2.04-.83-2.29-.83-3.24-.83c-2.79,0-4.18,2.2-4.18,6.6v30.69Z"/>
        <path class="cls-6" d="M241.22,319.01c-2.05-3.67-3.08-6.66-3.08-8.96s.62-3.8,1.87-4.46c4.18-1.83,9.92-2.75,17.21-2.75s12.45,1.71,15.46,5.11c3.01,3.41,4.51,8.45,4.51,15.12v17.38h3.74c1.25,0,2.22.73,2.92,2.2.7,1.47,1.04,3.48,1.04,6.05s-.64,5.1-1.92,7.59c-1.28,2.49-3.02,3.74-5.23,3.74-3.96,0-7.15-1.06-9.57-3.19-1.1-.88-1.94-1.94-2.53-3.19-3.37,4.25-8.62,6.38-15.73,6.38-5.35,0-9.86-1.91-13.53-5.72-3.67-3.81-5.5-8.32-5.5-13.53,0-11.95,7.15-17.93,21.45-17.93h6.05v-1.1c0-1.91-.31-3.14-.94-3.69-.62-.55-2.07-.83-4.35-.83-2.79,0-6.75.59-11.88,1.76ZM250.02,339.25c0,1.61.44,2.84,1.32,3.69.88.84,2,1.26,3.35,1.26s2.58-.55,3.69-1.65v-8.47h-3.08c-3.52,0-5.28,1.72-5.28,5.17Z"/>
        <path class="cls-6" d="M311.29,297.78c0,.51-3.35.77-10.06.77s-10.06-.22-10.06-.66v-15.84c0-.73,3.35-1.1,10.06-1.1s10.06.22,10.06.66v16.17ZM311.29,358.28c0,.59-3.35.88-10.06.88s-10.06-.26-10.06-.77v-54.01c0-.51,3.35-.77,10.06-.77s10.06.22,10.06.66v54.01Z"/>
        <path class="cls-6" d="M328.12,319.01c-2.05-3.67-3.08-6.66-3.08-8.96s.62-3.8,1.87-4.46c4.18-1.83,9.92-2.75,17.21-2.75s12.45,1.71,15.46,5.11c3.01,3.41,4.51,8.45,4.51,15.12v17.38h3.74c1.25,0,2.22.73,2.92,2.2.7,1.47,1.04,3.48,1.04,6.05s-.64,5.1-1.92,7.59c-1.28,2.49-3.02,3.74-5.23,3.74-3.96,0-7.15-1.06-9.57-3.19-1.1-.88-1.94-1.94-2.53-3.19-3.37,4.25-8.62,6.38-15.73,6.38-5.35,0-9.86-1.91-13.53-5.72-3.67-3.81-5.5-8.32-5.5-13.53,0-11.95,7.15-17.93,21.45-17.93h6.05v-1.1c0-1.91-.31-3.14-.94-3.69-.62-.55-2.07-.83-4.35-.83-2.79,0-6.75.59-11.88,1.76ZM336.92,339.25c0,1.61.44,2.84,1.32,3.69.88.84,2,1.26,3.35,1.26s2.58-.55,3.69-1.65v-8.47h-3.08c-3.52,0-5.28,1.72-5.28,5.17Z"/>
      </g>
    </g>
  </g>
</svg>