<svg fill="none" height="512" viewBox="0 0 512 512" width="512" xmlns="http://www.w3.org/2000/svg"><path d="m480 96h-448v320h448z" fill="#e92b2b"/><path d="m32 416h160v-320h-160z" fill="#32ab45"/><g clip-rule="evenodd" fill="#ffe70e" fill-rule="evenodd"><path d="m192 208c-26.51 0-48 21.49-48 48s21.49 48 48 48 48-21.49 48-48-21.49-48-48-48zm-64 48c0-35.346 28.654-64 64-64s64 28.654 64 64-28.654 64-64 64-64-28.654-64-64z"/><path d="m226.344 301.657-80-80 11.313-11.313 80 80z"/><path d="m184 312.567v-113.137h16v113.137z"/><path d="m135.988 248.57h113.137v16h-113.137z"/><path d="m157.656 301.657 80-80-11.313-11.313-80 80z"/></g><path d="m216 224h-48c-4.418 0-8 3.582-8 8v32c0 17.673 14.327 32 32 32s32-14.327 32-32v-32c0-4.418-3.582-8-8-8z" fill="#e92b2b"/><path d="m208 240h-32v24c0 8.837 7.163 16 16 16s16-7.163 16-16z" fill="#fbfbfb"/></svg>